<svg xmlns="http://www.w3.org/2000/svg" width="33" height="10" viewBox="0 0 33 10" fill="none">
    <path d="M31.1515 8.60128H29.2184V9.38884H31.0799C31.8674 9.38884 32.3686 8.88767 32.3686 8.17171C32.3686 7.45576 31.939 7.09778 31.2231 7.09778H30.3639C30.1492 7.09778 30.006 6.95459 30.006 6.7398C30.006 6.52501 30.1492 6.38182 30.3639 6.38182H32.0106L32.3686 5.59427H30.4355C29.648 5.59427 29.1468 6.09544 29.1468 6.7398C29.1468 7.45576 29.5764 7.81373 30.2923 7.81373H31.1515C31.3663 7.81373 31.5095 7.95692 31.5095 8.17171C31.5811 8.45809 31.4379 8.60128 31.1515 8.60128ZM27.6433 8.60128H25.7102V9.38884H27.5717C28.3593 9.38884 28.8604 8.88767 28.8604 8.17171C28.8604 7.45576 28.4309 7.09778 27.7149 7.09778H26.8558C26.641 7.09778 26.4978 6.95459 26.4978 6.7398C26.4978 6.52501 26.641 6.38182 26.8558 6.38182H28.5025L28.8604 5.59427H26.9274C26.1398 5.59427 25.6386 6.09544 25.6386 6.7398C25.6386 7.45576 26.0682 7.81373 26.7842 7.81373H27.6433C27.8581 7.81373 28.0013 7.95692 28.0013 8.17171C28.0729 8.45809 27.8581 8.60128 27.6433 8.60128ZM25.1375 6.31023V5.52268H22.1305V9.31724H25.1375V8.52969H22.9896V7.74214H25.0659V6.95459H22.9896V6.23863H25.1375V6.31023ZM20.269 6.31023C20.627 6.31023 20.7701 6.52501 20.7701 6.7398C20.7701 6.95459 20.627 7.16937 20.269 7.16937H19.195V6.23863L20.269 6.31023ZM19.195 7.95693H19.6246L20.7701 9.31724H21.8441L20.5554 7.88533C21.1997 7.74214 21.5577 7.31257 21.5577 6.7398C21.5577 6.02385 21.0565 5.52268 20.269 5.52268H18.2643V9.31724H19.1234L19.195 7.95693ZM16.904 6.8114C16.904 7.09778 16.7608 7.31257 16.4028 7.31257H15.2573V6.31023H16.3312C16.6892 6.31023 16.904 6.52501 16.904 6.8114ZM14.3981 5.52268V9.31724H15.2573V8.02852H16.4028C17.1904 8.02852 17.7631 7.52735 17.7631 6.7398C17.7631 6.02385 17.262 5.45108 16.4744 5.45108L14.3981 5.52268ZM13.1094 9.31724H14.1834L12.6798 7.38416L14.1834 5.52268H13.1094L12.1787 6.7398L11.2479 5.52268H10.174L11.6775 7.38416L10.174 9.24564H11.2479L12.1787 8.02852L13.1094 9.31724ZM9.88762 6.31023V5.52268H6.88061V9.31724H9.88762V8.52969H7.73976V7.74214H9.81603V6.95459H7.73976V6.23863H9.88762V6.31023ZM27.2853 1.72811L28.7888 4.01917H29.8628V0.224609H29.0036V2.73045L28.7888 2.37247L27.4285 0.224609H26.283V4.01917H27.1421V1.44173L27.2853 1.72811ZM23.5624 1.65652L23.8488 0.868969L24.1351 1.65652L24.4931 2.51567H23.2044L23.5624 1.65652ZM25.0659 4.01917H25.9966L24.3499 0.224609H23.2044L21.5577 4.01917H22.4884L22.8464 3.23162H24.7079L25.0659 4.01917ZM21.0565 4.01917L21.4145 3.23162H21.1997C20.5554 3.23162 20.1974 2.80205 20.1974 2.15769V2.08609C20.1974 1.44173 20.5554 1.01216 21.1997 1.01216H22.1305V0.224609H21.1281C19.9826 0.224609 19.3382 1.01216 19.3382 2.08609V2.15769C19.3382 3.30322 19.9826 4.01917 21.0565 4.01917ZM17.8347 4.01917H18.6939V0.296204H17.8347V4.01917ZM15.9732 1.01216C16.3312 1.01216 16.4744 1.22695 16.4744 1.44173C16.4744 1.65652 16.3312 1.87131 15.9732 1.87131H14.8993V0.940564L15.9732 1.01216ZM14.8993 2.65886H15.3289L16.4744 4.01917H17.5483L16.2596 2.58726C16.904 2.44407 17.262 2.0145 17.262 1.44173C17.262 0.725778 16.7608 0.224609 15.9732 0.224609H13.9686V4.01917H14.8277L14.8993 2.65886ZM13.3242 1.01216V0.224609H10.3172V4.01917H13.3242V3.23162H11.1763V2.44407H13.2526V1.65652H11.1763V0.940564H13.3242V1.01216ZM6.80902 4.01917H7.59657L8.6705 0.940564V4.01917H9.52965V0.224609H8.09774L7.23859 2.80205L6.37944 0.224609H4.94753V4.01917H5.80668V0.940564L6.80902 4.01917ZM2.15531 1.65652L2.44169 0.868969L2.72807 1.65652L3.08605 2.51567H1.79733L2.15531 1.65652ZM3.65881 4.01917H4.58956L2.94286 0.224609H1.86893L0.222229 4.01917H1.15297L1.51095 3.23162H3.37243L3.65881 4.01917Z" fill="#2F6DC9"/>
</svg>
