<svg width="100" height="100" viewBox="0 0 100 100" fill="none" xmlns="http://www.w3.org/2000/svg">
<g clip-path="url(#clip0)">
<path d="M50.2915 84.3865C44.2364 84.3865 38.2597 82.7648 32.8885 79.5996C25.0168 74.9469 19.4326 67.5316 17.1675 58.7183C12.4916 40.4764 23.5479 21.8432 41.8367 17.1793C60.1144 12.5154 78.7957 23.5544 83.4828 41.785C88.1588 60.0157 77.1025 78.6489 58.8136 83.3128C55.9879 84.0286 53.1285 84.3865 50.2915 84.3865ZM50.314 21.6083C47.9592 21.6083 45.582 21.8991 43.2048 22.5031C27.8762 26.4176 18.5916 42.0535 22.5275 57.3426C24.4225 64.7355 29.1097 70.954 35.7143 74.8574C42.3189 78.7608 50.0449 79.868 57.4568 77.9667C72.7854 74.0521 82.07 58.4275 78.1453 43.1383C74.8038 30.2315 63.1083 21.6083 50.314 21.6083Z" fill="#022AFF"/>
<path fill-rule="evenodd" clip-rule="evenodd" d="M34.1669 61.4696C35.6246 61.1005 37.1159 61.9729 37.486 63.4381C38.5512 67.5652 43.2272 70.3501 48.1162 69.0974L65.0482 64.769C66.5059 64.4 67.9973 65.2723 68.3673 66.7375C68.7374 68.2027 67.8627 69.6902 66.405 70.0593L49.473 74.3876C46.4005 75.1706 43.2496 74.9357 40.4687 73.8732L28.9751 76.8035L27.6183 71.5133L34.6715 69.7126C33.5277 68.3145 32.6643 66.6592 32.1933 64.7914C31.8345 63.3262 32.7091 61.8387 34.1669 61.4696Z" fill="#FE1251"/>
<path d="M40.2108 27.0999C39.2801 26.686 38.0915 26.563 37.015 26.8426C36.5889 26.9545 36.1516 27.1446 35.7479 27.413L37.856 35.6224L35.6582 52.5556L19.5111 56.6827L18.1543 51.3925L30.7244 48.1825L32.3167 35.9579L29.7152 25.8808C31.1168 23.2972 35.6246 18.9241 42.4198 22.1228C44.4158 23.0064 46.3108 24.684 46.9388 27.1334L48.2956 32.4237C48.3965 32.8375 48.4077 33.2625 48.318 33.6763L47.9592 35.3204L54.261 33.7099C55.7188 33.3408 57.2101 34.2244 57.5802 35.6783C57.9502 37.1435 57.0756 38.631 55.6179 39.0001L45.0437 41.7067C44.1242 41.9416 43.1599 41.6844 42.4759 41.0245C41.7919 40.3646 41.5003 39.4027 41.7022 38.4856L42.8571 33.1507L41.6573 28.4867C41.5564 28.0953 41.1639 27.5249 40.2108 27.0999Z" fill="#FE1251"/>
<path fill-rule="evenodd" clip-rule="evenodd" d="M54.1489 66.1559C53.207 62.5098 55.416 58.7854 59.0603 57.8571L64.353 56.5037C68.0085 55.5754 71.7201 57.7788 72.662 61.4249C73.6039 65.071 71.3949 68.7954 67.7506 69.7237L62.458 71.0771C58.8024 72.0054 55.0796 69.802 54.1489 66.1559ZM60.4171 63.1361C59.6883 63.3262 59.251 64.0644 59.4304 64.7914C59.621 65.5184 60.3611 65.9658 61.0899 65.7756L66.3826 64.4223C67.1115 64.2322 67.5488 63.494 67.3694 62.767C67.1787 62.04 66.4387 61.5927 65.7098 61.7828L60.4171 63.1361Z" fill="#FE1251"/>
<path fill-rule="evenodd" clip-rule="evenodd" d="M49.4618 58.8972C48.5198 55.2399 50.7289 51.5267 54.3732 50.5984L64.9473 47.8917C68.6028 46.9634 72.3144 49.1668 73.2563 52.8129C74.1982 56.459 71.9892 60.1834 68.3449 61.1117L57.7708 63.8184C54.1265 64.7467 50.4037 62.5433 49.4618 58.8972ZM55.73 55.8774C55.0011 56.0676 54.5638 56.8057 54.7432 57.5327C54.9338 58.2597 55.6739 58.7071 56.4028 58.517L66.9769 55.8103C67.7058 55.6202 68.1431 54.882 67.9637 54.155C67.773 53.428 67.033 52.9807 66.3041 53.1708L55.73 55.8774Z" fill="#FE1251"/>
<path fill-rule="evenodd" clip-rule="evenodd" d="M47.4322 50.9563C46.4902 47.2989 48.6993 43.5857 52.3436 42.6574L65.564 39.2797C69.2196 38.3514 72.9311 40.5547 73.8731 44.2009C74.815 47.8582 72.606 51.5714 68.9616 52.4997L55.73 55.8774C52.0857 56.8169 48.3629 54.6136 47.4322 50.9563ZM53.7004 47.9476C52.9715 48.1378 52.5342 48.876 52.7136 49.6029C52.9042 50.3299 53.6443 50.7773 54.3732 50.5872L67.5936 47.2095C68.3225 47.0193 68.7598 46.2812 68.5804 45.5542C68.401 44.8272 67.6497 44.3798 66.9208 44.5699L53.7004 47.9476Z" fill="#FE1251"/>
<path fill-rule="evenodd" clip-rule="evenodd" d="M48.0377 42.3442C47.0958 38.6869 49.3048 34.9737 52.9491 34.0454L63.5232 31.3388C67.1787 30.4105 70.8903 32.6138 71.8322 36.2599C72.7742 39.9172 70.5651 43.6305 66.9208 44.5588L56.3467 47.2654C52.6912 48.2049 48.9684 46.0015 48.0377 42.3442ZM54.3059 39.3356C53.577 39.5258 53.1397 40.2639 53.3191 40.9909C53.5098 41.7179 54.2498 42.1653 54.9787 41.9752L65.5528 39.2685C66.2817 39.0784 66.719 38.3402 66.5396 37.6132C66.349 36.8862 65.6089 36.4389 64.88 36.629L54.3059 39.3356Z" fill="#FE1251"/>
<path d="M50.2915 84.3865C44.2364 84.3865 38.2597 82.7648 32.8885 79.5996C25.0168 74.9469 19.4326 67.5316 17.1675 58.7183C14.1512 46.9746 17.6833 34.3809 26.3848 25.8584L30.2534 29.7841C22.9536 36.9422 19.9821 47.5003 22.5163 57.3538C24.4113 64.7467 29.0985 70.9652 35.7031 74.8686C42.3077 78.7719 50.0336 79.8792 57.4456 77.9778L58.8136 83.3128C55.9879 84.0286 53.1285 84.3865 50.2915 84.3865Z" fill="#022AFF"/>
<path d="M87.2617 20.5011C86.3198 19.3267 84.8957 19.3603 83.4043 20.557C81.8906 21.7649 81.4981 23.107 82.4624 24.315C83.3034 25.3551 84.2117 25.5005 84.9742 24.9301L83.7183 23.3643L85.3891 22.0333L88.4503 25.8472L87.2505 26.7979C84.8957 28.6881 82.2157 28.1736 80.4104 25.9255C78.392 23.4202 78.706 20.3669 81.4308 18.1859C84.279 15.9154 87.3851 16.5082 89.2465 18.8346C90.8836 20.8701 90.906 23.4202 89.325 24.986L87.4299 22.6261C87.9121 21.9886 87.8448 21.2281 87.2617 20.5011Z" fill="#022AFF"/>
<path d="M94.3261 26.4623L96.1875 30.8466C97.1406 33.1059 96.4902 35.1638 94.3261 36.0698C92.9132 36.6625 91.6573 36.4389 90.6705 35.5777L87.7551 39.2461L86.488 36.2487L89.0895 33.05L88.6858 32.0993L85.333 33.5197L84.1556 30.7572L94.3261 26.4623ZM91.2424 32.1664C91.6573 33.1283 92.2404 33.5645 93.115 33.1954C93.9897 32.8263 94.1242 32.0881 93.7094 31.1151L93.2945 30.142L90.8275 31.1822L91.2424 32.1664Z" fill="#022AFF"/>
<path d="M98.7778 38.3067L100 46.1581L97.6116 46.5272L96.8491 41.6396L94.9765 41.9304L95.6717 46.4154L93.2833 46.7845L92.588 42.2995L90.7154 42.5903L91.4779 47.4555L89.0895 47.8246L87.8672 39.9955L98.7778 38.3067Z" fill="#022AFF"/>
<path d="M89.3362 48.7753L99.8991 53.6405L99.4393 57.7005L88.0466 60.0604L88.4167 56.8505L90.5921 56.459L91.0069 52.8464L88.9773 51.974L89.3362 48.7753ZM92.902 56.0452L96.6472 55.3629L96.6584 55.2735L93.1599 53.7747L92.902 56.0452Z" fill="#022AFF"/>
<path d="M98.4638 63.1697L95.0774 72.1284L92.8123 71.2784L93.9897 68.1803L85.9161 65.1381L86.959 62.3756L95.0325 65.4177L96.2099 62.3196L98.4638 63.1697Z" fill="#022AFF"/>
<path d="M85.5909 74.8127C86.6226 75.6179 86.802 77.1055 85.9946 78.1344C85.1873 79.1634 83.6959 79.3424 82.6643 78.5371C81.6326 77.7318 81.4532 76.2443 82.2606 75.2153C83.0679 74.1975 84.5593 74.0074 85.5909 74.8127Z" fill="#FE1251"/>
<path d="M73.6937 89.2741C74.3216 90.057 75.2523 90.2583 76.2054 89.6096C77.4613 88.7708 77.5062 87.3728 76.4297 85.7734C75.2972 84.0957 74.0188 83.7043 72.8078 84.5207C71.8995 85.1359 71.6641 85.9859 72.0677 86.8583L69.5335 88.5359C68.614 86.903 68.7262 84.1293 71.4061 82.3286C73.9291 80.6397 76.9455 81.02 78.9975 84.0622C81.0496 87.1155 80.2086 90.0682 77.7304 91.7235C75.4205 93.2669 72.8863 93.0992 71.1595 90.963L73.6937 89.2741Z" fill="#022AFF"/>
<path d="M61.1796 87.1267C64.0727 86.2543 66.8984 87.4958 67.9637 90.9965C69.0289 94.5196 67.3582 97.092 64.4651 97.9644C61.5945 98.8256 58.7464 97.6177 57.6811 94.0946C56.6158 90.5715 58.309 87.9991 61.1796 87.1267ZM63.7138 95.4703C65.1379 95.0453 65.5865 93.7814 65.0146 91.8801C64.4427 89.9899 63.3662 89.1846 61.9421 89.6096C60.5181 90.0347 60.0695 91.2985 60.6414 93.1998C61.2133 95.1012 62.2898 95.9065 63.7138 95.4703Z" fill="#022AFF"/>
<path d="M45.3689 88.9722L47.8695 88.9498L51.9063 94.7098H51.9735L51.9287 88.9162L54.9226 88.8939L55.0011 99.9105L52.4557 99.9329L48.4862 94.1953H48.3965L48.4414 99.9664L45.4474 99.9888L45.3689 88.9722Z" fill="#022AFF"/>
<path d="M44.1691 88.8267L41.2424 99.452L37.1832 98.3335C33.8977 97.4276 32.3839 94.8775 33.3034 91.5557C34.2229 88.234 36.8244 86.8135 40.0762 87.6971L44.1691 88.8267ZM39.4932 90.1801C37.9121 89.7439 36.8244 90.1353 36.2077 92.361C35.5909 94.5867 36.331 95.4703 38.0018 95.9289L39.0222 96.2085L40.6033 90.482L39.4932 90.1801Z" fill="#022AFF"/>
<path d="M30.9599 84.1069L33.6398 85.449L28.6611 95.2913L25.9812 93.9492L30.9599 84.1069Z" fill="#022AFF"/>
<path d="M23.1218 92.5176L15.5192 86.6682L16.9993 84.7556L19.6344 86.78L24.9047 79.9687L27.2483 81.7694L21.978 88.5807L24.6131 90.6051L23.1218 92.5176Z" fill="#022AFF"/>
<path d="M19.6681 74.7232L21.664 76.9601L13.4111 84.2859L11.4151 82.049L19.6681 74.7232Z" fill="#022AFF"/>
<path d="M16.0574 69.1757C17.5488 71.7929 16.9657 74.8238 13.7811 76.6357C10.5741 78.4588 7.6811 77.3963 6.18973 74.7791C4.70958 72.1843 5.25903 69.1421 8.46603 67.3191C11.673 65.496 14.566 66.5697 16.0574 69.1757ZM8.45481 73.4817C9.19489 74.7679 10.5293 74.9357 12.2449 73.9515C13.9605 72.9672 14.51 71.7481 13.7811 70.4619C13.041 69.1757 11.7067 69.0079 9.99103 69.9922C8.26419 70.9652 7.72595 72.1955 8.45481 73.4817Z" fill="#022AFF"/>
<path d="M10.7647 54.1997L11.3366 56.6268L6.58219 61.8163L6.59341 61.8834L12.2449 60.5749L12.9289 63.494L2.16416 65.9881L1.59229 63.5164L6.3355 58.3827L6.31307 58.2932L0.68401 59.613L0 56.6939L10.7647 54.1997Z" fill="#022AFF"/>
<path d="M6.36914 48.8983C5.05719 48.7977 4.08163 47.6568 4.19377 46.3483C4.29469 45.0397 5.43844 44.0666 6.75039 44.1785C8.06235 44.2792 9.0379 45.42 8.92577 46.7285C8.82485 48.0259 7.68109 48.999 6.36914 48.8983Z" fill="#FE1251"/>
<path d="M1.70442 35.5777L3.45369 31.1486C4.35076 28.867 6.40278 27.9163 8.58937 28.7775C10.7984 29.6499 11.5609 31.7638 10.6414 34.1013L10.0359 35.6448L13.0859 36.8415L11.987 39.6264L1.70442 35.5777ZM8.25298 33.8105C8.63423 32.8375 8.32026 32.0322 7.44562 31.6855C6.55977 31.3388 5.80848 31.719 5.42723 32.6921L5.03477 33.6763L7.86051 34.7948L8.25298 33.8105Z" fill="#022AFF"/>
<path d="M6.78403 24.1136L9.58735 20.2662C11.0339 18.2865 13.1307 17.7832 15.037 19.1701C16.2705 20.0648 16.7302 21.2616 16.4947 22.5478L21.1482 23.1629L19.2308 25.7913L15.1379 25.2209L14.5324 26.0597L17.4815 28.1959L15.721 30.6118L6.78403 24.1136ZM13.2765 23.8228C13.8933 22.9728 13.9717 22.2458 13.198 21.6978C12.4355 21.1386 11.7291 21.407 11.1124 22.257L10.4956 23.107L12.6598 24.6728L13.2765 23.8228Z" fill="#022AFF"/>
<path d="M25.8802 19.4385C23.503 21.2951 20.4194 21.1721 18.1543 18.2977C15.878 15.4009 16.4947 12.4035 18.8719 10.5357C21.2267 8.69029 24.3216 8.77977 26.5979 11.6765C28.8742 14.5733 28.235 17.5931 25.8802 19.4385ZM20.4754 12.5825C19.3093 13.4996 19.3429 14.8417 20.5652 16.3964C21.7874 17.951 23.0881 18.3089 24.2543 17.3918C25.4205 16.4747 25.3869 15.1325 24.1646 13.5779C22.9424 12.0233 21.6528 11.6653 20.4754 12.5825Z" fill="#022AFF"/>
<path d="M30.7356 3.71322L35.2321 8.74621L35.3555 8.70147L35.7031 1.95726L39.224 0.71579L42.8908 11.1061L40.1211 12.0792L38.0018 6.07313L37.9233 6.10669L37.699 12.8509L36.0283 13.4325L31.599 8.27647L31.5205 8.31002L33.651 14.3608L30.8814 15.3338L27.2146 4.9435L30.7356 3.71322Z" fill="#022AFF"/>
<path d="M47.264 11.0838L44.2812 11.3969L43.1263 0.447365L46.109 0.134201L47.264 11.0838Z" fill="#022AFF"/>
<path d="M53.8125 2.47229C52.893 2.394 52.4557 2.71835 52.4109 3.19928C52.3436 3.72495 52.7809 4.06048 53.8125 4.36246L54.6984 4.63089C57.0868 5.34669 57.9951 6.59934 57.8717 8.27701C57.6923 10.4468 55.9206 11.5093 53.1285 11.2968C50.2579 11.0731 48.4862 9.68625 48.6881 6.93488L51.525 7.15857C51.4914 8.17635 52.1305 8.75794 53.2743 8.84741C54.2274 8.92571 54.7544 8.57899 54.8105 8.04214C54.8441 7.53884 54.4405 7.2033 53.2406 6.83422L52.1642 6.50987C50.2467 5.93946 49.1254 4.88813 49.2711 3.17691C49.4169 1.08542 51.3792 -0.178421 54.0031 0.0340833C56.6719 0.246588 58.2193 1.80122 58.0623 3.95982L55.203 3.73613C55.203 3.00914 54.7881 2.55058 53.8125 2.47229Z" fill="#022AFF"/>
<path d="M62.1103 1.34212L69.6569 3.88098L68.8832 6.16261L64.1736 4.5856L63.5793 6.37511L67.8964 7.82909L67.1227 10.1107L62.8056 8.65674L62.2 10.4462L66.8872 12.0232L66.1135 14.3049L58.5894 11.7772L62.1103 1.34212Z" fill="#022AFF"/>
<path d="M73.0657 13.2312C73.8282 12.1686 75.3084 11.9114 76.3736 12.6719C77.4389 13.4325 77.6968 14.9088 76.9343 15.9713C76.1718 17.0339 74.6916 17.2911 73.6264 16.5306C72.5611 15.7812 72.3144 14.3049 73.0657 13.2312Z" fill="#FE1251"/>
</g>
<defs>
<clipPath id="clip0">
<rect width="100" height="100" fill="white"/>
</clipPath>
</defs>
</svg>
