<svg xmlns="http://www.w3.org/2000/svg" width="12" height="13" viewBox="0 0 12 13" fill="none">
    <path d="M6.66669 9.48845C7.06522 9.25791 7.33335 8.82702 7.33335 8.3335C7.33335 7.59712 6.7364 7.00016 6.00002 7.00016C5.26364 7.00016 4.66669 7.59712 4.66669 8.3335C4.66669 8.82702 4.93482 9.25791 5.33335 9.48845V10.3335C5.33335 10.7017 5.63183 11.0002 6.00002 11.0002C6.36821 11.0002 6.66669 10.7017 6.66669 10.3335V9.48845Z" fill="#333333" fill-opacity="0.5"/>
    <path fill-rule="evenodd" clip-rule="evenodd" d="M2.66669 5.00016V3.66683C2.66669 1.82588 4.15907 0.333496 6.00002 0.333496C7.84097 0.333496 9.33335 1.82588 9.33335 3.66683V5.00016H11.3334V13.0002H0.666687V5.00016H2.66669ZM8.00002 3.66683V5.00016H4.00002V3.66683C4.00002 2.56226 4.89545 1.66683 6.00002 1.66683C7.10459 1.66683 8.00002 2.56226 8.00002 3.66683ZM2.00002 6.3335V11.6668H10V6.3335H2.00002Z" fill="#333333" fill-opacity="0.5"/>
</svg>
