<svg xmlns="http://www.w3.org/2000/svg" width="28" height="8" viewBox="0 0 28 8" fill="none">
    <path d="M5.42 1.01512C5.22161 0.822824 4.98388 0.675854 4.72318 0.584352C4.46249 0.49285 4.18504 0.458995 3.91 0.485122H1.91C1.8401 0.486477 1.77288 0.512198 1.71993 0.557843C1.66698 0.603488 1.63163 0.666191 1.62 0.735122L0.729997 6.01512C0.727172 6.04038 0.72973 6.06596 0.737502 6.09016C0.745274 6.11436 0.758084 6.13664 0.775089 6.15554C0.792094 6.17443 0.812908 6.18951 0.83616 6.19978C0.859413 6.21005 0.884577 6.21528 0.909997 6.21512H1.91C1.96982 6.21254 2.02751 6.19211 2.07562 6.15647C2.12374 6.12082 2.16009 6.0716 2.18 6.01512L2.4 4.57512C2.40743 4.50618 2.44017 4.44244 2.4919 4.39625C2.54363 4.35007 2.61065 4.32472 2.68 4.32512H3.33C3.61752 4.35834 3.9088 4.33206 4.18572 4.2479C4.46265 4.16374 4.7193 4.0235 4.93971 3.83592C5.16013 3.64833 5.33959 3.4174 5.46695 3.15749C5.5943 2.89758 5.66682 2.61425 5.68 2.32512C5.73634 2.10114 5.74224 1.86743 5.69727 1.64089C5.65231 1.41435 5.55761 1.20061 5.42 1.01512ZM4.15 2.40512C4.04 3.14512 3.47 3.14512 2.93 3.14512H2.62L2.83 1.75512C2.83684 1.71442 2.85746 1.6773 2.88841 1.64999C2.91936 1.62269 2.95876 1.60684 3 1.60512H3.14C3.51 1.60512 3.87 1.60512 4.04 1.81512C4.10225 1.89849 4.14454 1.99504 4.16361 2.09733C4.18268 2.19962 4.17802 2.30492 4.15 2.40512Z" fill="#253B80"/>
    <path d="M10.09 2.37472H9.08997C9.04928 2.37694 9.01023 2.39153 8.97806 2.41655C8.94589 2.44157 8.92214 2.47582 8.90997 2.51472V2.80472L8.83997 2.69472C8.68865 2.54236 8.50474 2.42631 8.30208 2.35529C8.09942 2.28427 7.8833 2.26015 7.66997 2.28472C7.1229 2.2974 6.59864 2.5064 6.19291 2.87359C5.78717 3.24077 5.52703 3.74163 5.45997 4.28472C5.40939 4.55139 5.41623 4.82578 5.48003 5.08961C5.54383 5.35343 5.66313 5.60063 5.82997 5.81472C5.9864 5.98786 6.18037 6.12293 6.39702 6.20959C6.61368 6.29626 6.84728 6.33221 7.07997 6.31472C7.33354 6.31744 7.585 6.26827 7.81887 6.17025C8.05275 6.07223 8.26411 5.92742 8.43997 5.74472V6.03472C8.43713 6.08088 8.45216 6.12636 8.48195 6.16174C8.51174 6.19712 8.554 6.21967 8.59997 6.22472H9.48997C9.55949 6.22791 9.62771 6.20509 9.68132 6.16072C9.73493 6.11635 9.7701 6.05361 9.77997 5.98472L10.31 2.57472C10.3212 2.54474 10.3232 2.51207 10.3157 2.48094C10.3082 2.44981 10.2915 2.42165 10.2678 2.4001C10.2441 2.37856 10.2145 2.36463 10.1828 2.3601C10.1511 2.35557 10.1187 2.36067 10.09 2.37472ZM7.58997 5.26472C7.46773 5.27147 7.34546 5.25173 7.23155 5.20686C7.11764 5.16199 7.01477 5.09303 6.92997 5.00472C6.85694 4.90321 6.80512 4.78801 6.77763 4.66602C6.75014 4.54403 6.74754 4.41774 6.76997 4.29472C6.8016 4.0215 6.93178 3.7692 7.13613 3.5851C7.34047 3.40101 7.60495 3.29776 7.87997 3.29472C8.00392 3.28909 8.12755 3.31133 8.24176 3.35978C8.35598 3.40824 8.45788 3.48168 8.53997 3.57472C8.62177 3.66957 8.67984 3.78251 8.7094 3.90421C8.73896 4.02592 8.73915 4.15292 8.70997 4.27472C8.68011 4.54958 8.54875 4.8034 8.3416 4.98651C8.13445 5.16962 7.86642 5.26883 7.58997 5.26472Z" fill="#253B80"/>
    <path d="M15.35 2.37473H14.35C14.3022 2.37412 14.2551 2.38575 14.2131 2.40851C14.1711 2.43126 14.1356 2.46438 14.11 2.50473L12.74 4.50473L12.16 2.55473C12.1412 2.49483 12.104 2.44234 12.0538 2.40467C12.0036 2.36699 11.9428 2.34603 11.88 2.34473H10.88C10.8524 2.34458 10.8252 2.35113 10.8007 2.36384C10.7763 2.37654 10.7552 2.39501 10.7395 2.41765C10.7237 2.44028 10.7137 2.46641 10.7103 2.49378C10.7069 2.52115 10.7103 2.54893 10.72 2.57473L11.81 5.81473L10.81 7.27473C10.7914 7.30026 10.7803 7.33047 10.7779 7.36195C10.7756 7.39344 10.782 7.42497 10.7965 7.453C10.8111 7.48103 10.8331 7.50447 10.8602 7.52067C10.8873 7.53687 10.9184 7.5452 10.95 7.54473H11.95C11.997 7.54738 12.0439 7.5377 12.0859 7.51665C12.128 7.4956 12.1639 7.46391 12.19 7.42473L15.49 2.61473C15.5013 2.58996 15.5065 2.56283 15.5051 2.53564C15.5038 2.50844 15.4959 2.48196 15.4822 2.45844C15.4685 2.43492 15.4493 2.41504 15.4263 2.40047C15.4033 2.3859 15.3771 2.37707 15.35 2.37473Z" fill="#253B80"/>
    <path d="M20.15 1.01474C19.9512 0.822991 19.7134 0.676382 19.4528 0.584916C19.1922 0.49345 18.915 0.45928 18.64 0.484736H16.57C16.5017 0.484549 16.4359 0.510233 16.3858 0.55662C16.3357 0.603006 16.305 0.666649 16.3 0.734736L15.45 6.01474C15.4471 6.04 15.4497 6.06557 15.4575 6.08978C15.4652 6.11398 15.4781 6.13626 15.4951 6.15515C15.5121 6.17405 15.5329 6.18913 15.5561 6.1994C15.5794 6.20967 15.6045 6.21489 15.63 6.21474H16.69C16.738 6.21257 16.7836 6.19318 16.8185 6.16013C16.8534 6.12708 16.8752 6.08256 16.88 6.03474L17.12 4.52474C17.1294 4.45664 17.1628 4.39411 17.2141 4.34832C17.2653 4.30253 17.3312 4.27645 17.4 4.27474H18.06C18.347 4.30499 18.6371 4.27661 18.9128 4.19131C19.1885 4.10602 19.444 3.96559 19.6637 3.77855C19.8835 3.59151 20.063 3.36177 20.1913 3.10326C20.3195 2.84475 20.3939 2.56288 20.41 2.27474C20.4544 2.05806 20.4542 1.83462 20.4095 1.618C20.3648 1.40138 20.2765 1.19613 20.15 1.01474ZM18.87 2.43474C18.77 3.17474 18.2 3.17474 17.65 3.17474H17.34L17.56 1.78474C17.5612 1.76371 17.5667 1.74314 17.5759 1.72421C17.5851 1.70529 17.598 1.68837 17.6138 1.67443C17.6296 1.66049 17.648 1.64981 17.6679 1.643C17.6879 1.63619 17.7089 1.63338 17.73 1.63474H17.88C18.25 1.63474 18.6 1.63474 18.78 1.84474C18.8344 1.9261 18.8706 2.01826 18.8861 2.1149C18.9017 2.21155 18.8962 2.31042 18.87 2.40474V2.43474Z" fill="#179BD7"/>
    <path d="M24.81 2.37517H23.81C23.7684 2.37414 23.7278 2.38751 23.695 2.41303C23.6622 2.43855 23.6392 2.47464 23.63 2.51517V2.80517L23.56 2.69517C23.4111 2.54239 23.229 2.42594 23.0278 2.35484C22.8267 2.28374 22.6119 2.25991 22.4 2.28517C21.8529 2.29785 21.3287 2.50686 20.9229 2.87404C20.5172 3.24122 20.2571 3.74208 20.19 4.28517C20.134 4.55166 20.1381 4.8273 20.2021 5.09199C20.2661 5.35668 20.3884 5.60374 20.56 5.81517C20.7139 5.98873 20.9061 6.12421 21.1212 6.21097C21.3364 6.29773 21.5687 6.3334 21.8 6.31517C22.055 6.3175 22.3078 6.2682 22.5433 6.17024C22.7787 6.07229 22.9919 5.92769 23.17 5.74517V6.03517C23.1672 6.05912 23.1695 6.08339 23.1767 6.10639C23.184 6.12938 23.1961 6.15056 23.2121 6.16853C23.2282 6.1865 23.2479 6.20085 23.27 6.21061C23.292 6.22038 23.3159 6.22534 23.34 6.22517H24.23C24.2978 6.22587 24.3636 6.20192 24.4151 6.15778C24.4666 6.11364 24.5003 6.0523 24.51 5.98517L25 2.57517C25.005 2.5487 25.0036 2.52142 24.996 2.49557C24.9884 2.46973 24.9748 2.44606 24.9562 2.42653C24.9376 2.407 24.9147 2.39215 24.8893 2.38322C24.8639 2.37429 24.8367 2.37154 24.81 2.37517ZM22.32 5.26517C22.1962 5.27272 22.0722 5.25339 21.9565 5.20852C21.8409 5.16364 21.7363 5.09427 21.65 5.00517C21.5765 4.904 21.5252 4.78849 21.4994 4.66615C21.4735 4.54382 21.4737 4.41742 21.5 4.29517C21.5272 4.02196 21.6547 3.76852 21.8579 3.58383C22.061 3.39914 22.3254 3.2963 22.6 3.29517C22.7273 3.28397 22.8554 3.30381 22.9734 3.353C23.0913 3.40219 23.1955 3.47925 23.2772 3.57758C23.3588 3.67591 23.4153 3.79257 23.4419 3.91756C23.4686 4.04254 23.4645 4.17212 23.43 4.29517C23.4 4.56647 23.2694 4.81666 23.0638 4.99626C22.8583 5.17587 22.5929 5.27183 22.32 5.26517Z" fill="#179BD7"/>
    <path d="M27.1 0.454983H26.1C26.0591 0.452113 26.0187 0.465034 25.9871 0.491081C25.9554 0.517129 25.935 0.554318 25.93 0.594983L25.13 6.01498C25.1256 6.03968 25.1267 6.06505 25.1332 6.08928C25.1397 6.11351 25.1515 6.13599 25.1678 6.15511C25.184 6.17422 25.2043 6.18951 25.2272 6.19986C25.25 6.21021 25.2749 6.21538 25.3 6.21498H26.15C26.2178 6.21568 26.2836 6.19173 26.3351 6.14759C26.3866 6.10345 26.4203 6.04211 26.43 5.97498L27.27 0.644984C27.2728 0.621038 27.2705 0.596763 27.2633 0.573771C27.256 0.550778 27.2439 0.529594 27.2279 0.511625C27.2118 0.493655 27.1921 0.479311 27.17 0.469546C27.148 0.45978 27.1241 0.454815 27.1 0.454983Z" fill="#179BD7"/>
</svg>
