<svg xmlns="http://www.w3.org/2000/svg" width="22" height="8" viewBox="0 0 22 8" fill="none">
    <path d="M8.37 0.559942L5.5 7.44994H3.61L2.22 1.99994C2.20877 1.87061 2.16416 1.74641 2.09054 1.63948C2.01692 1.53256 1.91681 1.44657 1.8 1.38994C1.24566 1.12444 0.661492 0.926366 0.0599976 0.799942V0.599942H3.06C3.25854 0.60228 3.44984 0.674876 3.59996 0.80485C3.75007 0.934824 3.84928 1.11377 3.88 1.30994L4.62 5.30994L6.46 0.619942L8.37 0.559942ZM15.7 5.19994C15.7 3.38994 13.2 3.28994 13.22 2.46994C13.22 2.22994 13.46 1.95994 13.97 1.89994C14.5697 1.83921 15.1747 1.94292 15.72 2.19994L16.03 0.739942C15.498 0.545315 14.9365 0.443829 14.37 0.439941C12.62 0.439941 11.37 1.36994 11.37 2.71994C11.37 3.71994 12.25 4.25994 12.92 4.58994C13.59 4.91994 13.84 5.14994 13.84 5.44994C13.84 5.90994 13.29 6.10994 12.78 6.11994C12.1463 6.13663 11.5192 5.98846 10.96 5.68994L10.61 7.19994C11.2479 7.4452 11.9266 7.56735 12.61 7.55994C14.47 7.55994 15.68 6.63994 15.69 5.19994H15.7ZM20.31 7.44994H21.94L20.52 0.559942H19.02C18.857 0.559772 18.6976 0.6082 18.5622 0.699041C18.4268 0.789883 18.3216 0.919014 18.26 1.06994L15.61 7.44994H17.47L17.83 6.44994H20.1L20.31 7.44994ZM18.31 5.00994L19.25 2.42994L19.81 4.99994L18.31 5.00994ZM10.87 0.559942L9.41 7.44994H7.67L9.13 0.559942H10.87Z" fill="#172991"/>
</svg>
